FILE "Amiga CD32 Gamer Vol. 02 (1994-06)(Paragon Publishing)(GB).img" BINARY
  TRACK 01 MODE1/2352
    INDEX 01 00:00:00
  TRACK 02 AUDIO
    PREGAP 00:02:00
    INDEX 01 06:28:19
  TRACK 03 AUDIO
    INDEX 01 10:14:73
  TRACK 04 AUDIO
    INDEX 01 11:43:65
  TRACK 05 AUDIO
    INDEX 01 11:54:51
  TRACK 06 AUDIO
    INDEX 01 12:54:42
  TRACK 07 AUDIO
    INDEX 01 15:34:21
  TRACK 08 AUDIO
    INDEX 01 19:49:46
  TRACK 09 AUDIO
    INDEX 01 22:55:62
